<?xml version="1.0" encoding="UTF-8"?>
<!DOCTYPE svg PUBLIC "-//W3C//DTD SVG 1.1//EN" "http://www.w3.org/Graphics/SVG/1.1/DTD/svg11.dtd">
<!-- Creator: CorelDRAW 2020 (64-Bit) -->
<svg xmlns="http://www.w3.org/2000/svg" xml:space="preserve" width="200mm" height="200mm" version="1.1" shape-rendering="geometricPrecision" text-rendering="geometricPrecision" image-rendering="optimizeQuality" fill-rule="evenodd" clip-rule="evenodd"
viewBox="0 0 20000 20000"
 xmlns:xlink="http://www.w3.org/1999/xlink"
 xmlns:xodm="http://www.corel.com/coreldraw/odm/2003">
 <g id="Capa_x0020_1">
  <metadata id="CorelCorpID_0Corel-Layer"/>
  <path fill="white" fill-rule="nonzero" d="M1006.16 12223.01l16929.86 0c141.52,0 270.01,57.73 363.02,150.73 93,93.01 150.73,221.5 150.73,363.02l0 1699.73c0,141.51 -57.73,270 -150.73,363.01 -93.01,93 -221.5,150.73 -363.02,150.73l-16929.86 0c-141.52,0 -270.02,-57.73 -363.02,-150.73 -93,-93.01 -150.74,-221.5 -150.74,-363.01l0 -1699.73c0,-141.52 57.74,-270.01 150.74,-363.02 93,-93 221.49,-150.73 363.02,-150.73zm16929.86 460.94l-480.11 0 0 1805.34 480.11 0c14.28,0 27.44,-6.02 37.12,-15.69 9.67,-9.68 15.69,-22.83 15.69,-37.11l0 -1699.73c0,-14.28 -6.02,-27.44 -15.69,-37.12 -9.68,-9.67 -22.83,-15.69 -37.12,-15.69zm-941.06 0l-9578.88 0 0 1805.34 9578.88 0 0 -1805.34zm-10039.83 0l-5948.97 0c-14.29,0 -27.45,6.02 -37.12,15.69 -9.68,9.68 -15.69,22.84 -15.69,37.12l0 1699.73c0,14.28 6.01,27.43 15.69,37.11 9.67,9.67 22.84,15.69 37.12,15.69l5948.97 0 0 -1805.34z"/>
  <path fill="white" fill-rule="nonzero" d="M18392.32 11616.41c-73.37,90.25 -206.02,103.92 -296.26,30.54 -90.25,-73.38 -103.92,-206.02 -30.54,-296.26 0.69,-0.84 2.51,-3.43 5.42,-7.72 53.66,-78.8 100.76,-250 88.46,-448.99 -12.15,-196.81 -88.03,-411.94 -284.78,-572.47 -18.01,-14.68 -38.42,-29.85 -61.38,-45.48 -79.07,-53.83 -182.29,-108.13 -292.17,-165.92 -299.66,-157.6 -642.97,-338.18 -858.53,-672.47 -309.88,-480.53 -157.72,-817.21 -25.58,-1109.58 98.33,-217.58 176.64,-390.85 -485.48,-663.88 -625.96,-258.12 -904.96,-758.71 -919,-1252.03 -5.34,-187.61 28.45,-374.09 96.72,-545.58 68.95,-173.17 172.72,-331.05 306.61,-459.66 336.09,-322.84 853.66,-465.71 1476.78,-211.95 108.02,43.75 160.11,166.79 116.36,274.8 -43.75,108.01 -166.79,160.11 -274.8,116.36 -444.78,-181.13 -802.1,-90.81 -1026.21,124.47 -90.67,87.1 -160.93,193.97 -207.58,311.13 -47.3,118.84 -70.71,248.34 -67,378.88 9.68,340.51 209.42,688.99 658.22,874.06 1065.73,439.47 908.01,788.46 709.94,1226.69 -88.29,195.37 -189.96,420.33 -4.12,708.52 155.17,240.63 446.12,393.66 700.07,527.23 120.99,63.63 234.65,123.42 333.44,190.68 30.16,20.54 59.99,42.91 89.44,66.93 304.42,248.38 421.51,576.17 439.93,874.51 18.3,296.14 -66.4,572.36 -161.09,711.42 -7.76,11.41 -16.75,23.38 -26.87,35.77z"/>
  <path fill="white" fill-rule="nonzero" d="M16932.76 6536.77c-105.27,-49.22 -150.72,-174.48 -101.5,-279.76 49.22,-105.28 174.48,-150.72 279.76,-101.5 845.61,397.51 1241.46,847.66 1368.2,1353.09 111.37,444.1 7.76,908.95 -182.71,1409.03 456.14,223.83 832.57,558.38 1035.68,1014.06 217.75,488.52 232.39,1105.29 -73.79,1857.79 -15.32,37.66 -31.63,76.06 -48.93,115.17 -46.94,106.66 -171.46,155.05 -278.11,108.11 -106.65,-46.93 -155.05,-171.45 -108.11,-278.1 15.27,-34.54 29.94,-69.09 43.99,-103.62 258.47,-635.25 253.15,-1140.1 80.39,-1527.69 -171.83,-385.5 -513.38,-665.95 -927.37,-849.05 -23.81,-10.53 -48.27,-20.91 -73.32,-31.09l-196.37 -79.89 80.84 -195.74c205.93,-498.67 336.22,-946.91 238.49,-1336.65 -96.34,-384.18 -423.94,-738.9 -1137.14,-1074.16z"/>
 </g>
</svg>
