<?xml version="1.0" encoding="UTF-8"?>
<!DOCTYPE svg PUBLIC "-//W3C//DTD SVG 1.1//EN" "http://www.w3.org/Graphics/SVG/1.1/DTD/svg11.dtd">
<!-- Creator: CorelDRAW 2020 (64-Bit) -->
<svg xmlns="http://www.w3.org/2000/svg" xml:space="preserve" width="200mm" height="200mm" version="1.1" shape-rendering="geometricPrecision" text-rendering="geometricPrecision" image-rendering="optimizeQuality" fill-rule="evenodd" clip-rule="evenodd"
viewBox="0 0 20000 20000"
 xmlns:xlink="http://www.w3.org/1999/xlink"
 xmlns:xodm="http://www.corel.com/coreldraw/odm/2003">
 <g id="Capa_x0020_1">
  <metadata id="CorelCorpID_0Corel-Layer"/>
  <path fill="white" d="M4649.24 8391.75c-1753.05,0 -1597.27,891.76 -1597.27,2613.71 0,1719.52 1046.52,1524.66 2178.08,1524.66 1152.07,0 -89.06,-2696.37 944.04,-5009.4 502.68,-1125.43 1939.29,-2396.1 3557.36,-2396.1 858.3,0 1416.21,41.25 2180.37,433.31 2795.25,1434.2 2321,4473.67 2321,7262.6 0,1794.36 -1463.49,1887.66 -2686.31,1887.66 -197.99,-741.48 -1105.98,-580.81 -2032.87,-580.81 -1193.2,0 -1089.05,628.69 -1089.05,1234.24 0,976.62 1304.57,726.04 2468.5,726.04 347.44,0 579.51,-231.37 653.42,-508.24 1165.92,0 1823.51,-15.29 2512.63,-536.68 922.05,-697.63 1044.91,-1428.14 1044.91,-2512.62 2137.01,0 1815.07,-670.96 1815.07,-3049.32 0,-926.88 -737.32,-1089.05 -1524.66,-1089.05 -349.42,-728.26 -82.27,-1443.3 -1759.19,-3105.21 -1468.45,-1455.33 -3814.31,-1742.61 -5730.3,-971.94 -716.43,288.16 -971.33,537.95 -1513.98,954.53 -664.54,510.13 -1652.25,2047.12 -1741.75,3122.62z"/>
  <path fill="white" fill-rule="nonzero" d="M7637.97 10238.84c-236.99,-257.54 -220.33,-658.46 37.21,-895.45 257.54,-236.99 658.46,-220.33 895.45,37.21l973.53 1056.63 1881.21 -2107.53c232.88,-260.28 632.69,-282.49 892.97,-49.61 260.28,232.88 282.49,632.69 49.61,892.97l-2317.69 2596.52c-21.05,26.89 -44.5,52.45 -70.45,76.33 -257.54,236.99 -658.46,220.33 -895.45,-37.21l-1446.39 -1569.86z"/>
 </g>
</svg>
