<?xml version="1.0" encoding="UTF-8"?>
<!DOCTYPE svg PUBLIC "-//W3C//DTD SVG 1.1//EN" "http://www.w3.org/Graphics/SVG/1.1/DTD/svg11.dtd">
<!-- Creator: CorelDRAW 2020 (64-Bit) -->
<svg xmlns="http://www.w3.org/2000/svg" xml:space="preserve" width="200mm" height="200mm" version="1.1" shape-rendering="geometricPrecision" text-rendering="geometricPrecision" image-rendering="optimizeQuality" fill-rule="evenodd" clip-rule="evenodd"
viewBox="0 0 20000 20000"
 xmlns:xlink="http://www.w3.org/1999/xlink"
 xmlns:xodm="http://www.corel.com/coreldraw/odm/2003">
 <g id="Capa_x0020_1">
  <metadata id="CorelCorpID_0Corel-Layer"/>
  <path fill="white" fill-rule="nonzero" d="M18992.4 10007.6c0,-4970.57 -4029.29,-9000.29 -8999.71,-9000.29 -4971,0 -9000.29,4029.72 -9000.29,9000.29 0,4492.21 3291.07,8215.2 7593.64,8890.83l0 -6289.67 -2284.9 0 0 -2601.16 2284.9 0 0 -1983.21c0,-2255.77 1344.06,-3501.62 3399.95,-3501.62 984.39,0 2014.07,175.94 2014.07,175.94l0 2214.67 -1134.52 0c-1118.22,0 -1466.64,693.95 -1466.64,1405.64l0 1688.58 2495.88 0 -398.89 2601.16 -2096.99 0 0 6289.67c4302.43,-675.63 7593.5,-4398.62 7593.5,-8890.83z"/>
 </g>
</svg>
