<?xml version="1.0" encoding="UTF-8"?>
<!DOCTYPE svg PUBLIC "-//W3C//DTD SVG 1.1//EN" "http://www.w3.org/Graphics/SVG/1.1/DTD/svg11.dtd">
<!-- Creator: CorelDRAW 2020 (64-Bit) -->
<svg xmlns="http://www.w3.org/2000/svg" xml:space="preserve" width="200mm" height="140mm" version="1.1" shape-rendering="geometricPrecision" text-rendering="geometricPrecision" image-rendering="optimizeQuality" fill-rule="evenodd" clip-rule="evenodd"
viewBox="0 0 20000 14000"
 xmlns:xlink="http://www.w3.org/1999/xlink"
 xmlns:xodm="http://www.corel.com/coreldraw/odm/2003">
 <defs>
   <linearGradient id="id0" gradientUnits="userSpaceOnUse" x1="492.4" y1="7001.95" x2="19492.4" y2="7001.95">
    <stop offset="0" stop-opacity="1" stop-color="#0064E6"/>
    <stop offset="1" stop-opacity="1" stop-color="red"/>
   </linearGradient>
 </defs>
 <g id="Capa_x0020_1">
  <metadata id="CorelCorpID_0Corel-Layer"/>
  <path fill="url(#id0)" d="M2166.42 12665.14c529.67,174.13 911.96,175.2 1276.64,36.53 416.46,-158.37 865.42,-509.68 1475.78,-996.69l186.74 -149.1c836.22,-670.47 1655.81,-1327.58 2860.91,-1741.97 3168.74,-1089.69 5264.99,495.6 6981.12,1793.41 1161.46,878.33 2116.32,1600.44 2989.84,985.96 580.29,-408.2 706.62,-1498.78 607.46,-2785.99 -170.77,-2216.5 -1036,-4922.88 -1497.02,-6095.11 -177.53,-451.34 -383.8,-969.13 -647.08,-1403.74 -243.82,-402.49 -541.79,-748.46 -921.5,-922 -178.46,-81.57 -414.91,-144.49 -668.17,-186.12 -277.92,-45.68 -567.54,-63.91 -819.4,-51.98 -425.67,20.17 -846.84,198.77 -1280.24,382.56 -561,237.89 -1139.64,483.26 -1866.13,497.72l-225.01 4.53c-1555.66,31.47 -2114.43,42.78 -3498.43,-539.73 -470.72,-198.14 -954.94,-331.45 -1433.08,-346.41 -457.47,-14.33 -915.61,81.61 -1358.61,337.67 -587.85,339.79 -1149.03,1472.74 -1621.11,2825.38 -725.57,2078.95 -1199.15,4618.41 -1277.01,5765.73 -45.49,670.24 -23.26,1228.18 107.69,1673.45 112.33,381.99 310.83,686.08 626.61,915.9zm1600.08 895.43c-1407.57,535.24 -2694.64,-149.9 -3107.14,-1552.6 -165.07,-561.28 -196.02,-1221.73 -143.65,-1993.27 81.43,-1199.9 573.91,-3847.75 1327.35,-6006.5 536.49,-1537.22 1222.51,-2852.64 2027.18,-3317.75 603.19,-348.66 1226.04,-479.31 1847.36,-459.85 600.61,18.79 1193.16,179.65 1760.11,418.29 1203.9,506.71 1711.51,496.44 3124.68,467.85l226.81 -4.48c547.2,-10.6 1044.44,-221.46 1526.52,-425.89 510.23,-216.37 1006.06,-426.63 1592.9,-454.44 314.34,-14.88 671.3,7.13 1009.87,62.77 327.35,53.81 644.99,140.62 901.77,258 573.03,261.9 994.76,737.92 1323.99,1281.37 309.76,511.34 530.05,1063.62 718.96,1543.88 479.24,1218.55 1379.08,4037.43 1558.11,6361.05 122.13,1585.38 -96.77,2973.1 -995.58,3605.38 -1421.6,1000.02 -2617.23,95.86 -4071.55,-1003.95 -1540.41,-1164.93 -3422,-2587.87 -6129.42,-1656.82 -1058.1,363.85 -1813.49,969.48 -2584.18,1587.41l-190.33 152.7c-674.66,538.31 -1174.46,927.98 -1723.76,1136.85z"/>
  <path fill="white" fill-rule="nonzero" d="M14519.62 6608.09c0,-369.51 -299.6,-669.11 -669.11,-669.11 -369.5,0 -669.11,299.6 -669.11,669.11 0,369.51 299.61,669.11 669.11,669.11 369.51,0 669.11,-299.6 669.11,-669.11zm1338.82 -1338.54c0,-369.65 -299.6,-669.25 -669.24,-669.25 -369.64,0 -669.25,299.6 -669.25,669.25 0,369.63 299.61,669.24 669.25,669.24 369.64,0 669.24,-299.61 669.24,-669.24zm-2676.9 0c0,-369.65 -299.6,-669.25 -669.24,-669.25 -369.64,0 -669.25,299.6 -669.25,669.25 0,369.63 299.61,669.24 669.25,669.24 369.64,0 669.24,-299.61 669.24,-669.24zm1338.08 -1338.35c0,-369.51 -299.6,-669.11 -669.11,-669.11 -369.5,0 -669.11,299.6 -669.11,669.11 0,369.51 299.61,669.1 669.11,669.1 369.51,0 669.11,-299.59 669.11,-669.1z"/>
  <path fill="white" fill-rule="nonzero" d="M7857.69 4700.55l-853.34 0 0 -853.06c0,-156.93 -127.39,-284.44 -284.33,-284.44l-568.89 0c-157.1,0 -284.45,127.39 -284.45,284.44l0 853.06 -853.28 0c-157.1,0 -284.33,127.4 -284.33,284.62l0 568.9c0,157.1 127.39,284.61 284.33,284.61l853.28 0.05 0 853.07c0,157.22 127.4,284.45 284.45,284.45l568.89 0c157.11,0 284.33,-127.06 284.33,-284.45l0 -853.07 853.34 0c157.11,0 284.45,-127.39 284.45,-284.6l0 -568.9c0,-157.22 -127.51,-284.62 -284.45,-284.62l0 -0.06z"/>
 </g>
</svg>
