<?xml version="1.0" encoding="UTF-8"?>
<!DOCTYPE svg PUBLIC "-//W3C//DTD SVG 1.1//EN" "http://www.w3.org/Graphics/SVG/1.1/DTD/svg11.dtd">
<!-- Creator: CorelDRAW 2020 (64-Bit) -->
<svg xmlns="http://www.w3.org/2000/svg" xml:space="preserve" width="200mm" height="200mm" version="1.1" shape-rendering="geometricPrecision" text-rendering="geometricPrecision" image-rendering="optimizeQuality" fill-rule="evenodd" clip-rule="evenodd"
viewBox="0 0 20000 20000"
 xmlns:xlink="http://www.w3.org/1999/xlink"
 xmlns:xodm="http://www.corel.com/coreldraw/odm/2003">
 <g id="Capa_x0020_1">
  <metadata id="CorelCorpID_0Corel-Layer"/>
  <path fill="white" d="M15062.82 17930.13l-2218.31 0c0,-783.79 79.58,-3705.43 -109.23,-4292.17 -81.27,-252.56 -215.83,-523.05 -391.81,-699.75 -198.01,-198.83 -330.51,-334.11 -589.39,-466.94 -616.04,-316.07 -1750.89,-210.15 -2571.54,-210.15 -316.1,0 -609.2,81.85 -834.21,186.92 -732.18,341.89 -1137.62,1057.7 -1137.62,1996.18l0 3485.91 -2218.31 0c-1139.66,0 -985.91,-1050.55 -985.91,-1725.35l0 -4049.29c0,-1523.2 172.31,-1592.47 -1162.84,-1583.64 -249.54,1.65 -389.09,-26.16 -534.45,-134.57 -110.51,-82.42 -239.33,-285.4 -239.33,-464.89 0,-333.73 571.49,-800.37 871.48,-1100.35l6443.66 -6443.66c696.33,-696.35 806.08,-479.12 1566.9,281.69l6707.75 6707.73c150.47,149.93 299.34,270.63 317.08,526.16 15.66,225.71 -134.53,444.65 -295.17,534.5 -670.17,374.86 -1638.16,-438.13 -1632.94,867.06 3.12,782.68 36.29,5607.03 -18.62,5861.66 -94.5,438.21 -446.07,722.95 -967.19,722.95zm-5352.11 -16936.61l306.05 0c781.31,3.18 794.21,61.53 1621.77,889.08l6496.47 6496.48c853.09,853.09 871.48,784.72 871.48,1910.21 0,472.32 -547.59,1088.49 -1095.14,1264.02 -703.92,225.65 -817.36,-163.36 -808.34,353.62l2.07 4262.64c0,455.87 48.18,1064.71 -83.15,1466.14 -246.81,754.41 -951.53,1350.76 -1747.83,1350.76l-2992.96 0c-254.29,0 -448.29,-164.22 -508.23,-372.05 -63.5,-220.15 -19.27,-3807.13 -18.69,-4312.3 0.35,-299.36 -72.96,-501.93 -219.97,-660.3 -123.98,-133.56 -311.18,-289.15 -555.92,-289.15l-1901.41 0c-427.95,0 -778.59,410.83 -775.49,985.08l0.84 3451.54c0,377.16 145.01,1197.18 -528.17,1197.18l-2992.95 0c-796.27,0 -1561.93,-645.32 -1768.59,-1400.43 -132.52,-484.24 -62.4,-3731.09 -62.4,-4691.12 0,-1306.89 128.62,-1277.94 -316.51,-1267.99 -501.08,11.2 -868.52,-214.64 -1118.73,-465.78 -445.53,-447.16 -501.38,-734.51 -501.38,-1329.61 0,-640.25 502.52,-1048.29 836.27,-1382.04l6566.9 -6566.9c285.47,-285.47 779.95,-889.08 1294.01,-889.08z"/>
 </g>
</svg>
