<?xml version="1.0" encoding="UTF-8"?>
<!DOCTYPE svg PUBLIC "-//W3C//DTD SVG 1.1//EN" "http://www.w3.org/Graphics/SVG/1.1/DTD/svg11.dtd">
<!-- Creator: CorelDRAW 2020 (64-Bit) -->
<svg xmlns="http://www.w3.org/2000/svg" xml:space="preserve" width="200mm" height="200mm" version="1.1" shape-rendering="geometricPrecision" text-rendering="geometricPrecision" image-rendering="optimizeQuality" fill-rule="evenodd" clip-rule="evenodd"
viewBox="0 0 20000 20000"
 xmlns:xlink="http://www.w3.org/1999/xlink"
 xmlns:xodm="http://www.corel.com/coreldraw/odm/2003">
 <g id="Capa_x0020_1">
  <metadata id="CorelCorpID_0Corel-Layer"/>
  <g id="_2442410749200">
   <path fill="white" d="M14492.83 4542.6c-550.24,0 -996.57,446.32 -996.57,996.43 0,550.66 446.33,996.98 996.57,996.98 550.52,0 996.44,-446.32 996.44,-996.98 0,-550.11 -445.92,-996.43 -996.44,-996.43z"/>
   <path fill="white" d="M10062.27 12689.09c-1478.99,0 -2682.04,-1203.05 -2682.04,-2681.49 0,-1478.99 1203.05,-2682.04 2682.04,-2682.04 1478.44,0 2681.49,1203.05 2681.49,2682.04 0,1478.44 -1203.05,2681.49 -2681.49,2681.49zm0 -6868.4c-2308.72,0 -4186.91,1878.19 -4186.91,4186.91 0,2308.17 1878.19,4186.36 4186.91,4186.36 2308.17,0 4186.36,-1878.19 4186.36,-4186.36 0,-2308.72 -1878.19,-4186.91 -4186.36,-4186.91z"/>
   <path fill="white" d="M6598.44 3106.92c-1933.89,0 -3506.99,1573.1 -3506.99,3507l0 6787.22c0,1934.04 1573.1,3507.14 3506.99,3507.14l6787.36 0c1933.9,0 3507,-1573.1 3507,-3507.14l0 -6787.22c0,-1933.9 -1573.1,-3507 -3507,-3507l-6787.36 0zm6787.36 15400.88l-6787.36 0c-2815.65,0 -5106.11,-2291.01 -5106.11,-5106.66l0 -6787.22c0,-2816.06 2290.46,-5106.52 5106.11,-5106.52l6787.36 0c2815.52,0 5106.53,2290.46 5106.53,5106.52l0 6787.22c0,2815.65 -2291.01,5106.66 -5106.53,5106.66z"/>
  </g>
 </g>
</svg>
