<?xml version="1.0" encoding="UTF-8"?>
<!DOCTYPE svg PUBLIC "-//W3C//DTD SVG 1.1//EN" "http://www.w3.org/Graphics/SVG/1.1/DTD/svg11.dtd">
<!-- Creator: CorelDRAW 2020 (64-Bit) -->
<svg xmlns="http://www.w3.org/2000/svg" xml:space="preserve" width="200mm" height="200mm" version="1.1" shape-rendering="geometricPrecision" text-rendering="geometricPrecision" image-rendering="optimizeQuality" fill-rule="evenodd" clip-rule="evenodd"
viewBox="0 0 20000 20000"
 xmlns:xlink="http://www.w3.org/1999/xlink"
 xmlns:xodm="http://www.corel.com/coreldraw/odm/2003">
 <g id="Capa_x0020_1">
  <metadata id="CorelCorpID_0Corel-Layer"/>
  <circle fill="black" cx="9992.4" cy="10007.6" r="10000"/>
  <path fill="white" fill-rule="nonzero" d="M4565.61 11091.79c-62.03,-42.23 -120.92,-90.16 -175.86,-143.68l-26.38 -26.38c-94.7,-97.23 -171.88,-206.84 -230.89,-324.23 -11.68,-23.37 -23.07,-47.37 -33.31,-71.4 -71.89,-166.58 -106.89,-343.11 -106.76,-518.5 -0.14,-175.4 34.88,-351.92 106.76,-518.5 10.24,-24.03 21.63,-48.03 33.31,-71.4 58.99,-117.41 136.21,-227 230.89,-324.23l26.38 -26.38c54.94,-53.52 113.83,-101.45 175.86,-143.68l7355.04 -5244.55c590.11,-419.89 1408.88,-281.9 1828.77,308.21 419.88,590.11 281.89,1408.88 -308.22,1828.77l-5878.59 4191.76 5878.59 4191.76c590.11,419.89 728.1,1238.66 308.22,1828.77 -419.89,590.11 -1238.66,728.1 -1828.77,308.21l-7355.04 -5244.55z"/>
 </g>
</svg>
