<?xml version="1.0" encoding="UTF-8"?>
<!DOCTYPE svg PUBLIC "-//W3C//DTD SVG 1.1//EN" "http://www.w3.org/Graphics/SVG/1.1/DTD/svg11.dtd">
<!-- Creator: CorelDRAW 2020 (64-Bit) -->
<svg xmlns="http://www.w3.org/2000/svg" xml:space="preserve" width="200mm" height="200mm" version="1.1" shape-rendering="geometricPrecision" text-rendering="geometricPrecision" image-rendering="optimizeQuality" fill-rule="evenodd" clip-rule="evenodd"
viewBox="0 0 20000 20000"
 xmlns:xlink="http://www.w3.org/1999/xlink"
 xmlns:xodm="http://www.corel.com/coreldraw/odm/2003">
 <g id="Capa_x0020_1">
  <metadata id="CorelCorpID_0Corel-Layer"/>
  <path fill="white" fill-rule="nonzero" d="M9543.45 2493.25c1783.55,0 3398.3,722.98 4567.18,1891.86 1168.88,1168.88 1891.86,2783.63 1891.86,4567.18 0,1783.55 -722.98,3398.3 -1891.86,4567.18 -52.48,52.48 -105.88,104.03 -160.13,154.68l2763.91 2763.91c247.95,247.95 247.95,649.97 0,897.92 -247.95,247.95 -649.97,247.95 -897.92,0l-2884.2 -2884.2c-985.16,608.39 -2145.98,959.55 -3388.84,959.55 -1783.55,0 -3398.3,-722.98 -4567.18,-1891.86 -1168.88,-1168.88 -1891.86,-2783.63 -1891.86,-4567.18 0,-1783.55 722.98,-3398.3 1891.86,-4567.18 1168.88,-1168.88 2783.63,-1891.86 4567.18,-1891.86zm3669.26 2789.78c-938.98,-938.98 -2236.28,-1519.78 -3669.26,-1519.78 -1432.98,0 -2730.28,580.8 -3669.26,1519.78 -938.98,938.98 -1519.78,2236.28 -1519.78,3669.26 0,1432.98 580.8,2730.28 1519.78,3669.26 938.98,938.98 2236.28,1519.78 3669.26,1519.78 1432.98,0 2730.28,-580.8 3669.26,-1519.78 938.98,-938.98 1519.78,-2236.28 1519.78,-3669.26 0,-1432.98 -580.8,-2730.28 -1519.78,-3669.26z"/>
 </g>
</svg>
