<?xml version="1.0" encoding="UTF-8"?>
<!DOCTYPE svg PUBLIC "-//W3C//DTD SVG 1.1//EN" "http://www.w3.org/Graphics/SVG/1.1/DTD/svg11.dtd">
<!-- Creator: CorelDRAW 2020 (64-Bit) -->
<svg xmlns="http://www.w3.org/2000/svg" xml:space="preserve" width="200mm" height="200mm" version="1.1" shape-rendering="geometricPrecision" text-rendering="geometricPrecision" image-rendering="optimizeQuality" fill-rule="evenodd" clip-rule="evenodd"
viewBox="0 0 20000 20000"
 xmlns:xlink="http://www.w3.org/1999/xlink"
 xmlns:xodm="http://www.corel.com/coreldraw/odm/2003">
 <g id="Capa_x0020_1">
  <metadata id="CorelCorpID_0Corel-Layer"/>
  <path fill="white" d="M10370.96 16380.05c739.99,0 1656.44,-127.76 2377.48,-387.91 813.46,-293.5 769.55,-575.62 771.16,-1108 -45.94,-1134.45 -46.56,-2214.58 -317.16,-3327.22 -171.46,-704.94 -442.49,-1389.87 -866.36,-1841.24 -1284.35,-1367.68 -4066.92,-1151.84 -5086.03,496.76 -674.43,1091.02 -812.83,3348.78 -812.01,4612.45 0.38,582.02 20.28,755.25 447.16,1017.35 773.14,474.69 2357.16,537.81 3485.76,537.81zm-405.03 -12728.48c1162.64,0 2105.13,1032.93 2105.13,2307.12 0,1274.2 -942.49,2307.13 -2105.13,2307.13 -1162.63,0 -2105.12,-1032.93 -2105.12,-2307.13 0,-1274.19 942.49,-2307.12 2105.12,-2307.12zm5168.21 -16.42c1006.78,0 1822.92,894.46 1822.92,1997.83 0,1103.38 -816.14,1997.84 -1822.92,1997.84 -1006.77,0 -1822.91,-894.46 -1822.91,-1997.84 0,-1103.37 816.14,-1997.83 1822.91,-1997.83zm-10283.48 0c1006.78,0 1822.92,894.46 1822.92,1997.83 0,1103.38 -816.14,1997.84 -1822.92,1997.84 -1006.77,0 -1822.91,-894.46 -1822.91,-1997.84 0,-1103.37 816.14,-1997.83 1822.91,-1997.83zm10621.28 10954.15c637.46,0 1426.92,-110.06 2048.06,-334.16 700.74,-252.83 662.92,-495.86 664.3,-954.48 -39.57,-977.26 -40.11,-1907.72 -273.21,-2866.19 -147.7,-607.27 -381.18,-1197.29 -746.32,-1586.12 -1077.59,-1147.51 -3379.26,-1000.79 -4309.48,319.76 10.13,10.49 20.43,20.77 30.43,31.42 549.97,585.65 862.15,1409.44 1049.36,2179.2 257.75,1059.77 286.62,2097.81 326.24,3171.12 420.32,31.68 843.45,39.45 1210.62,39.45zm-10283.48 0c157.98,0 325.3,-6.77 497.08,-20.35 17.61,-1456.12 199.61,-3582.5 923.16,-4752.97 145.78,-235.84 321.11,-451.76 520.41,-644.39 -74.99,-118.23 -157.36,-226.91 -247.82,-323.24 -1106.39,-1178.17 -3503.4,-992.24 -4381.3,427.93 -580.98,939.85 -700.21,2884.77 -699.5,3973.34 0.33,501.38 17.47,650.61 385.2,876.39 666.01,408.92 2030.55,463.29 3002.77,463.29z"/>
 </g>
</svg>
