<?xml version="1.0" encoding="UTF-8"?>
<!DOCTYPE svg PUBLIC "-//W3C//DTD SVG 1.1//EN" "http://www.w3.org/Graphics/SVG/1.1/DTD/svg11.dtd">
<!-- Creator: CorelDRAW 2020 (64-Bit) -->
<svg xmlns="http://www.w3.org/2000/svg" xml:space="preserve" width="200mm" height="200mm" version="1.1" shape-rendering="geometricPrecision" text-rendering="geometricPrecision" image-rendering="optimizeQuality" fill-rule="evenodd" clip-rule="evenodd"
viewBox="0 0 20000 20000"
 xmlns:xlink="http://www.w3.org/1999/xlink"
 xmlns:xodm="http://www.corel.com/coreldraw/odm/2003">
 <g id="Capa_x0020_1">
  <metadata id="CorelCorpID_0Corel-Layer"/>
  <path fill="white" d="M7695.67 7561.53l-4922.07 417.8c-269.06,20.45 -393.8,166.23 -417.51,328.02l0 120.01c15.7,112 74.08,218.97 160.9,285.64l1858.48 1601.88c52.74,44.44 71.71,72.59 123.86,114.67l1764.55 1516.83 -574.26 2438.67c-79.41,376.91 -559.44,2195.68 -559.44,2572.89 0,250.09 245.65,328.02 447.44,328.02 115.26,0 452.47,-232.6 565.07,-299.87l1655.21 -999.76c378.69,-227.87 722.12,-434.1 1100.21,-659.6l1094.29 -665.81c349.65,234.08 737.53,429.06 1097.84,662.26 361.8,233.79 721.23,437.36 1096.66,663.15 378.69,227.86 719.45,439.14 1096.07,663.74l820.2 492.48c227.27,137.49 180.75,143.41 423.43,143.41 219.86,0 366.83,-264.9 337.2,-455.43l-1142.88 -4884.15 2483.41 -2139.98c90.67,-86.52 149.04,-120 238.53,-209.19 60.75,-60.16 61.34,-56.6 129.19,-109.34l878.28 -762.42c108.75,-81.78 164.45,-189.35 178.38,-296.91l0 -108.74c-11.26,-88.6 -50.37,-170.68 -110.23,-230.24 -72.3,-71.71 -160.3,-96.01 -278.83,-109.04l-2115.68 -181.05c-667.01,-37.04 -2318.07,-237.94 -2834.84,-237.94 -58.08,-250.39 -1600.1,-3792.82 -1824.11,-4350.49 -155.56,-387.28 -190.23,-481.8 -532.18,-481.8 -306.98,0 -503.44,696.93 -669.08,1091.03l-1568.09 3741.26z"/>
 </g>
</svg>
