<?xml version="1.0" encoding="UTF-8"?>
<!DOCTYPE svg PUBLIC "-//W3C//DTD SVG 1.1//EN" "http://www.w3.org/Graphics/SVG/1.1/DTD/svg11.dtd">
<!-- Creator: CorelDRAW 2020 (64-Bit) -->
<svg xmlns="http://www.w3.org/2000/svg" xml:space="preserve" width="200mm" height="200mm" version="1.1" shape-rendering="geometricPrecision" text-rendering="geometricPrecision" image-rendering="optimizeQuality" fill-rule="evenodd" clip-rule="evenodd"
viewBox="0 0 20000 20000"
 xmlns:xlink="http://www.w3.org/1999/xlink"
 xmlns:xodm="http://www.corel.com/coreldraw/odm/2003">
 <g id="Capa_x0020_1">
  <metadata id="CorelCorpID_0Corel-Layer"/>
  <path fill="white" d="M16258 11332.08c5.83,-0.26 8.22,0.31 13.89,0.63l217.59 1.02c0.51,0.04 2.64,0.2 3.14,0.25l83.81 1.12c46.28,-3.43 -32.94,3.5 11.27,-2l38.05 0.12c42.8,11.78 22.51,23.86 23.03,26.63 8.74,46.16 -0.39,1327.43 -0.41,1431.11l0 1384.42c0.02,105.35 9.29,330.85 0.18,431.26 -1.38,15.32 -1.28,14.05 -7.45,34.75 -141.55,13.54 -933.86,2.38 -1153.82,2.49 -50.78,0.02 -137.61,21.36 -153.27,-39.39 -4.94,-19.18 -0.56,3.11 -2.78,-16.07 -8.63,-74.47 0.39,-1300.19 0.4,-1448.15 0,-132.71 -2.68,-153.93 -29.26,-262.63 -14.09,-57.59 -30.91,-50.51 -54.88,-98.63 -27.7,-55.6 -30.5,-37.73 -74.76,-69.03 -37.64,-26.62 -58.59,-32.44 -105.81,-45.88l-2034.98 -12.48c-83.48,0 -185.54,39.2 -234.28,76.33 -58.26,44.37 -101.08,112.33 -126.71,179.97 -16.96,44.77 -5.5,1296.12 -5.5,1502.35 0,203.43 29.05,243.44 -57.37,243.45 -416.79,0.01 -834.28,7.21 -1250.99,-0.5 -29.62,-44.59 -18.72,-155.5 -19.24,-201.99l0 -609.6c-3.08,-272.5 3.74,-538.41 0.01,-804.37 -0.65,-46.71 0.07,-141.69 -31.22,-187.12 -13.78,-20.02 0.3,6.42 -13.05,-19.76l-5.54 -14.38c-0.42,-0.99 -1.17,-3.34 -1.62,-4.31 -15.17,-32.91 -56.14,-72.72 -83.06,-94.11 -48.64,-38.66 -99.38,-56.04 -160.55,-58.29 -576.34,-21.14 -1180.78,-7.67 -1761.62,-7.67 -118.7,0 -346.44,-23.42 -442.03,46.97 -108.11,79.6 -130.16,152.65 -170.38,260.87 -12.38,33.3 -4.41,-16.31 -0.63,11.85 15.07,112.25 3.59,938.41 3.59,1031.15l0.57 592.61c-0.81,32.26 -1.12,58.65 -51.52,58.65l-1219.2 0c-73.78,0 -57.52,-13.29 -56.92,-90.93l0.1 -1058.45c0,-148.8 20.56,-474.93 -17.92,-593.3 -6.76,-20.77 -6.94,-40.08 -16.3,-60.68 -14.19,-31.25 -30.34,-42.76 -47.05,-70.68l-9.61 -16.71c-1.1,-1.55 -2.41,-3.68 -3.6,-5.14 -54.31,-66.59 -177.07,-102.61 -272.04,-102.61l-1930.4 0c-90.54,0 -175.89,28.89 -243.8,72.8 -31.56,20.41 -52.23,53.87 -71.38,87.42 -59.94,104.95 -22.19,-5.14 -41.73,119.48l-6.45 26.32c-18.06,76.27 -5.93,1259.39 -5.93,1432.1 0,149.64 26.79,255.79 -56.16,255.79l-1208.62 0c-60.35,0 -59.23,-2.37 -59.23,-61.06l0 -3208.87c0,-22.7 -2.79,-32.18 15.98,-44.72 31.48,-21.04 17.39,0.2 48.35,-3.38l63.04 1.22c65.14,-7.95 152.11,6.41 208.02,-1.07 31.12,-4.17 22.58,-2.4 46.74,0.69l568.68 -1.88c28.83,-3.16 25.14,-0.14 40.92,1.88l139.95 0.95c29.2,2.64 -25.56,-3.53 36.58,-4.18 13.95,-0.15 33.17,4.55 35.01,4.58 0.81,0.02 2.92,-0.17 3.74,-0.23l481.14 -3.63c2.59,-1.02 9.06,-4.99 16.35,-7.29l71.64 -12.38c1.96,-0.29 9.75,-1 11.07,-1.28 3.03,-0.66 159.92,-102.32 188.62,-223.87 3.84,-16.27 1.33,-3.84 3.76,-24.62l1.63 -15.85c1.92,-10.27 6.33,-18.09 8.87,-37.09 12.01,-90.03 1.63,-2863.64 1.63,-3463.25 0,-36.01 -13.39,-172.96 9.7,-200.09 29.71,-22.74 198.35,-9.16 250.68,-9.16l1278.47 0c95.98,0.01 241.71,-3.95 309.76,-56.32 105.02,-80.81 107.31,-107.3 143.92,-223.83 16.58,-52.78 7.98,-1414.13 5.68,-1644.61 -0.61,-61.72 -10.71,-73.71 48.64,-73.71l5215.47 0c67.59,0 57.8,6.54 57.14,73.71l-0.29 1397.41c0,199.95 -12.28,360.01 132.04,447.28 54.04,32.68 47.71,41.95 119.21,66.2 85.11,28.86 1076.71,13.87 1241.31,13.87 536.53,0 506.31,-52.74 505.92,116.1l-0.01 2641.62c0,297.82 -11.87,620.73 1.53,915.45 2.88,63.37 7.58,79.25 30.05,129.98 9.14,20.64 59.57,103.21 115.74,134.76l22.03 9.39c90.06,44.73 47.04,17.62 137.72,45.71 31.55,9.77 11.08,5.04 28.42,6.38l107.12 -1.86c4.91,-0.22 4.48,0.02 9.54,0.19l25.05 2c26.19,2.21 -24.23,1.61 9.69,0.97l319.42 -1.74c1.42,0.11 8.23,0.65 9.55,0.77l193.65 -0.77c1.42,0.11 8.23,0.65 9.55,0.77l575.02 -2.19zm947.6 3913.97c12.57,-7.69 -27.56,27.94 10.35,-6.96 25.73,-23.68 47.78,-62 48.89,-64.6 37.86,-88.66 54.97,-10.88 55,-213.88l0 -3937.01c0,-60.58 -3.36,-122.23 -27.18,-178.14l-13.65 -23.05c-47.51,-64.6 -64.05,-75.87 -127.07,-125.8 -65.18,-51.65 -200.07,-38.18 -278.21,-38.2l-1024.54 -0.05c-73.58,0.01 -461.15,15.03 -522.38,-15.49 -0.96,-697.16 -0.04,-1394.38 -0.04,-2091.54 0,-166.55 10.91,-1466.23 -2.42,-1564.43 -9.94,-73.27 0.77,-51.9 -22.8,-112.63l-52.25 -91.28c-1.16,-1.2 -3.14,-2.76 -4.36,-3.93 -157.79,-150.79 -399.8,-103.01 -621.27,-103.01l-1049.86 0c-297.94,0 -249.86,41.87 -249.86,-258.32 0,-347.13 0,-694.27 0,-1041.4 0,-147.67 21.36,-390.78 -25.88,-501.91 -57.8,-135.96 -169.4,-196.49 -325.4,-196.51l-5935.14 0.02c-105.88,0 -186.66,9.24 -251.95,81.42 -29.02,32.08 -32.76,47.13 -55.21,81.11 -49.36,74.74 -43.8,80.2 -44.17,205.67 -0.69,235.55 10.41,1528.58 -1.24,1589.16 -7.67,39.89 -38.47,41.42 -87.24,41.08 -285.77,-1.94 -1611.9,-15.72 -1691.93,13.86 -63.17,23.35 -114.71,65.36 -151.83,119.8 -39.43,57.82 -53.33,82.97 -63.86,151.77 -18.7,122.22 -6.67,367.98 -6.67,514.26l-0.04 3166.81c-52.15,25.99 -103.26,15.54 -141.45,15.54 -39.8,0.01 -84.64,-0.05 -126.93,-0.05 -88.59,-0.02 -161.25,-0.02 -249.84,0l-1007.46 0.05c-45.85,0 -211.58,-9.19 -303.12,51.36 -109.27,72.29 -120.37,92.38 -153.47,183.41l-7.01 18.09c-22.19,71.18 -8.49,3636.04 -8.49,4032.4 0,99.08 15.26,103.92 27.67,157.61 15.94,68.94 117.52,167.96 183.87,189.6 54.06,17.64 87.13,25.36 161.03,25.36l1921.93 0c57.21,0 84.35,-7.52 130.94,-20.3 72.92,-20.02 137.08,-65.27 173.58,-124.41 41.55,-67.32 66.06,-134.55 66.35,-227.66 0.96,-309.61 -12.47,-1474.71 3.34,-1616.51l1303.19 -1.39c7.35,30.28 9.21,22.46 10.7,50.16l-1.13 1578.2 35.31 156.1c9.96,20.01 13.96,18.93 24.26,34.14 41.08,60.7 42.65,74.85 109.89,111.5 67.42,36.75 109.81,60.17 209.45,60.17 269.56,0 1869.12,12.34 1999.17,-5.45 62.43,-8.54 69.79,2.69 132.19,-47.08 40.23,-32.09 56.57,-28.66 85.64,-76.36l20.77 -28.95c1.06,-1.39 2.68,-3.3 3.73,-4.72 1.06,-1.44 2.56,-3.43 3.6,-4.9 27.98,-39.7 49.81,-132.77 50.11,-169.07l0.19 -1545.2c-0.01,-12.51 0.26,-26.21 -0.06,-42.38 -0.35,-17.62 -4.38,-45 21.37,-56.91 0.95,-0.44 3.39,-1.26 4.37,-1.57l1296.28 14.65c0.67,1.01 1.87,3.41 2.4,4.47l3.02 9.16c0.42,1.84 0.6,7.23 0.72,9.03 0.81,12.95 -0.71,24.23 -0.74,38.09l0.05 1303.95c0.02,92.16 -23.78,291.83 32.92,410.78 0.85,1.79 2.07,3.87 2.93,5.67 39.42,82.32 53.36,78.88 115.82,129.48 42.29,34.25 93.4,44.99 144.54,51.86 133.29,17.88 1719.21,5.45 1990.72,5.45 41.46,0 159.82,-24.82 188.73,-39.45l69.83 -47.92c50.43,-36.04 89.39,-101.42 101.86,-161.98 21.32,-103.49 7.47,-1384.39 7.35,-1673.18 -0.02,-57.25 6.22,-79.96 64.03,-79.96l1210.73 0c80.4,0 71.03,1.42 70.36,80.22l-0.29 1566.65c-0.11,71.8 9.23,73.3 22.15,133.29 8.66,40.25 60.92,126.83 90.44,147.03 25.53,17.47 6.38,-4.09 38.3,23.23 22.91,19.61 21.28,18.94 49.97,33.91 35.07,18.3 89.7,18.16 159.82,18.16 235.87,0 1984.24,15 2071.31,-11.94 12.96,-4.01 51.79,-15.49 66.68,-27.85l38.59 -30.4z"/>
  <path fill="white" d="M7348.41 9355.67c8.51,-7.68 5.52,-5.45 17.64,-12.56l37.28 -12.17c8.9,-0.84 28.87,0.28 42.76,0.3 183.24,0.28 1165,-12.23 1220.52,4.31 6.66,20.08 -0.07,23.82 0.46,42.85l0.46 163.37c-3.6,40.42 -3.6,-31.63 0,8.8l-0.39 28.02c-0.59,16.65 -2.77,-27.35 1.06,9.04l0 33.86c2.62,24.83 2.62,-6.15 0,18.68l-1.06 107.76c-0.02,0.44 -0.02,2.44 0,2.87l0 30.99c-0.02,0.44 -0.02,2.44 0,2.88l0.39 231.23c-3.6,40.42 -3.6,-31.62 0,8.8l-0.39 28.03c-0.59,16.64 -2.77,-27.35 1.06,9.03 2.62,24.83 2.62,-6.15 0,18.68l-1.06 107.76c-0.02,0.43 -0.02,2.43 0,2.87l0 30.99c-0.02,0.44 -0.02,2.44 0,2.88l1.06 58.7c-3.68,34.92 -3.68,-19.74 0,15.19l0 120.28c-3.83,36.38 -1.65,-7.62 -1.06,9.03l0 64.86c-0.02,0.43 -0.02,2.43 0,2.87l0.39 95.76c-3.59,40.56 -3.86,-31.8 0.01,8.81l0.19 28.09c-0.07,0.46 -0.26,2.5 -0.34,2.96l-1.97 9.88c-5.98,12.51 -19.29,16.69 -25.25,17.68 -53.8,8.87 -468.39,-0.51 -546.46,-0.5l-550.26 0.06c-57.84,-0.01 -146.11,18.84 -195.08,-24.48l0.04 -1278.46zm-662.16 1608.66c0,72.25 5.07,145.5 8.21,153.07l97.35 128.28c91.21,52.23 21.74,42.85 147.72,68.02 125.26,25.03 117.44,10.9 171.9,15.98l248.76 -0.57c19.75,-1.28 40.2,4.15 42.44,4.18l143.31 -0.97c2.01,-0.24 26.67,-3.85 39.62,-2.64l91.75 3.38c0.92,-0.06 3.11,-0.62 4.09,-0.74l78.38 -2.26c28.83,-3.16 25.14,-0.14 40.92,1.88l72.21 0.95c29.2,2.64 -25.56,-3.53 36.58,-4.18 13.96,-0.15 33.18,4.55 35.01,4.58l18.48 -3.23c38.56,-4.23 86.46,6.95 124.83,2.26l733.37 0.57c29.2,2.64 -25.56,-3.53 36.58,-4.18 13.95,-0.15 33.18,4.55 35.01,4.58l7.84 -0.97c1.17,-0.14 3.51,-0.9 4.82,-1.07l27.61 -2.31c7.54,0.34 29.39,4.3 31.24,4.2 44.51,-2.59 122.48,-14.06 164.45,-31.13 100.06,-40.71 178.19,-132.16 197.7,-242.09 18.44,-103.89 15.36,-136.85 14.49,-243.07l0.53 -1755.36c0.04,-136.89 -17.81,-130.11 -29.41,-202.28 -6.3,-39.22 -118.33,-150.23 -206.72,-177.19 -2.02,-0.62 -7.76,-2.46 -10,-3.15 -0.75,-0.23 -14.51,-4.43 -18.17,-5.59 -20.22,-6.4 -25.01,-9.04 -38.58,-12.88 -64.53,-18.29 -578.25,-6.33 -665.48,-6.31 -83.24,0.02 -1360.29,-9.75 -1394.81,1.84 -90.73,30.48 -144.91,50.97 -208.72,127.15 -62.9,75.09 -83.31,128.35 -83.31,242.39l0 1938.86z"/>
  <path fill="white" d="M12564.11 10658.56c-180.71,-0.28 -1168.9,11 -1220.52,-4.31 -7.42,-28.19 -2.41,-49.03 0.53,-79.7 0.11,-1.16 0.02,-7.04 0.02,-8.18l-2.41 -96.29c-5.13,-34.24 2.24,-63.01 2.41,-106.91l-1.63 -25.21c-0.23,-1.34 -1.85,-9.33 -1.91,-10.86 -1.06,-30.32 3.06,-19.78 3.2,-20.78 3.73,-26.58 -4.56,-11.99 -3.2,-50.96l3.5 -101c0,-0.37 0.04,-2.42 0.04,-2.8l-1.63 -16.81c-5.46,-31.29 1.74,-23.53 1.63,-50.92l-2.41 -87.88c-5.68,-37.94 2.49,-27.16 2.41,-47.59 0,-1.13 0.15,-4.36 0.09,-5.5l-1.72 -146.77c-0.23,-1.34 -1.85,-9.33 -1.91,-10.85l3.5 -237.67c0,-10.43 0.59,15.84 0.1,-8.38l-3.18 -156.47c-0.9,-8.32 1.25,-20.14 1.45,-21.45 5.26,-34.61 28.49,-30.64 53.23,-30.14 37.05,0.75 60.3,0.12 97.46,0.12 129.69,-0.03 256.54,-0.04 385.23,-0.06l723.83 -0.45 59.61 24.93 -0.04 1278.46c-29.73,26.77 -60.4,24.48 -97.68,24.43zm-1663.5 -1974.91c-62.34,19.38 -133.54,70.58 -170.13,132.36 -38.22,64.54 -41.29,78.58 -58.81,158.37 -13.88,63.25 -2.9,256.9 -2.92,328.33 -0.09,538.42 9.66,1110.24 0.08,1642.74 -0.99,55.25 11.76,70 20.66,123.55 14.42,86.69 57.13,153.32 127.96,204.09 49.13,35.22 60.25,34.76 80.78,35.82 0.63,0.03 2.9,0.13 3.6,0.18 56.19,4.55 108.42,23.81 158.46,24.28l75.52 -1.05c1.17,-0.14 3.51,-0.9 4.82,-1.07 4.17,-0.56 6.66,-2.4 20.07,-2.54l150.2 0.97c3.16,0.29 18.44,3.58 20.27,3.61l199.35 -0.4c29.19,2.64 -25.57,-3.53 36.58,-4.18 13.95,-0.15 33.17,4.55 35.01,4.58l820.64 -0.97c54.32,-6.63 103.96,-0.03 152.91,-3.21 35.7,-2.31 23.1,2.38 38.59,3.78 29.2,2.64 -25.56,-3.53 36.58,-4.18 13.96,-0.15 33.18,4.55 35.01,4.58 42.06,0.68 70.44,-7.79 115.2,-3.61l95.84 2.64c77,-9.4 28.57,10.01 166.54,-16.83 105.7,-20.57 141.84,-61.25 206.12,-130.14 1.21,-1.3 3.03,-3.14 4.25,-4.44 1.19,-1.29 3.03,-3.05 4.19,-4.34 49.49,-54.63 45.97,-122.78 45.97,-212.24l0 -1938.86c0,-71.38 -2.08,-123.43 -38.75,-184.63 -28.57,-47.68 -62.08,-80.26 -105.72,-115.34 -14.36,-11.54 0.47,-2.47 -19.5,-14.68 -3.5,-2.14 -14.01,-7.27 -17.12,-8.77l-107.47 -44.75c-30.76,-13.09 -481.74,-3.14 -538.91,-3.15l-1414.05 -0.06c-173.83,0.03 -78.58,-2.54 -181.82,29.56z"/>
 </g>
</svg>
