<?xml version="1.0" encoding="UTF-8"?>
<!DOCTYPE svg PUBLIC "-//W3C//DTD SVG 1.1//EN" "http://www.w3.org/Graphics/SVG/1.1/DTD/svg11.dtd">
<!-- Creator: CorelDRAW 2020 (64-Bit) -->
<svg xmlns="http://www.w3.org/2000/svg" xml:space="preserve" width="200mm" height="200mm" version="1.1" shape-rendering="geometricPrecision" text-rendering="geometricPrecision" image-rendering="optimizeQuality" fill-rule="evenodd" clip-rule="evenodd"
viewBox="0 0 20000 20000"
 xmlns:xlink="http://www.w3.org/1999/xlink"
 xmlns:xodm="http://www.corel.com/coreldraw/odm/2003">
 <g id="Capa_x0020_1">
  <metadata id="CorelCorpID_0Corel-Layer"/>
  <path fill="white" fill-rule="nonzero" d="M19414.22 4063.15c-602.89,273.13 -1270.3,438.39 -1921.42,547.51 308.96,-51.61 762.88,-611.15 944.55,-837.55 277.64,-344.67 508.29,-738.07 637.84,-1162.8 16.79,-33.2 29.19,-74.67 -4.01,-99.98 -41.97,-16.29 -68.53,-7.89 -101.61,8.39 -726.67,389.4 -1478.53,671.93 -2278.5,872.14 -66.27,16.28 -115.39,0 -157.36,-41.98 -66.28,-74.79 -128.67,-145.46 -198.96,-203.34 -336.27,-286.03 -696.98,-510.55 -1103.54,-676.31 -533.98,-217.37 -1117.44,-309.83 -1692.89,-272.62 -559.54,36.71 -1108.93,193.94 -1605.33,453.42 -497.64,259.97 -941.79,621.93 -1295.86,1058.18 -365.59,451.67 -635.21,984.27 -773.53,1549.57 -133.05,545.38 -121.9,1084.62 -40.59,1635.77 12.4,91.58 3.88,103.86 -78.68,91.58 -3128.83,-465.95 -5722.43,-1585.02 -7828.15,-3984.55 -91.46,-104.36 -140.95,-104.36 -216.12,7.9 -921.5,1381.3 -474.22,3599.53 676.68,4690.04 153.85,145.84 311.22,290.8 481.36,423.35 -62.27,12.78 -827.91,-69.78 -1510.73,-423.35 -91.46,-58 -137.44,-24.43 -145.46,79.06 -8.4,149.34 4.51,286.91 24.81,448.66 176.78,1399.72 1146.51,2694.33 2474.19,3199.99 157.87,66.28 332.02,124.16 501.78,153.35 -302.32,66.28 -614.04,113.64 -1481.66,45.48 -107.75,-20.29 -148.84,33.58 -107.75,137.45 651.88,1776.46 2058.74,2305.43 3112.92,2606.5 140.95,24.68 281.9,24.68 423.85,57.88 -8.89,12.78 -17.29,12.78 -25.18,25.18 -349.68,532.6 -1561.6,929.02 -2126.02,1126.22 -1026.24,358.83 -2144.06,520.2 -3228.69,413.2 -173.77,-25.56 -209.98,-23.43 -256.84,0 -47.73,29.7 -6.14,71.17 49.49,116.27 220.13,145.46 444.27,274.01 672.8,398.67 688.59,365.09 1406.74,655.88 2157.72,863.24 3878.93,1070.96 8247.49,283.77 11159.82,-2609.51 2286.89,-2272.23 3088.61,-5405.95 3088.61,-8543.3 0,-122.78 144.96,-190.44 231.16,-255.46 595,-446.78 1074.98,-982.01 1518.75,-1579.14 99.35,-134.43 100.73,-253.71 100.73,-302.82 0,-8.39 0,-16.29 0,-16.29 0,-50.49 -1.38,-34.95 -78.18,0z"/>
 </g>
</svg>
